<?xml version="1.0" encoding="UTF-8" standalone="no"?>
<!-- Generator: Adobe Illustrator 24.0.2, SVG Export Plug-In . SVG Version: 6.00 Build 0)  -->

<svg
   version="1.1"
   id="cr_close"
   x="0px"
   y="0px"
   viewBox="0 0 477 116.9"
   xml:space="preserve"
   sodipodi:docname="crunchyroll-seeklogo.com.svg"
   width="477"
   height="116.9"
   inkscape:version="1.1.2 (b8e25be833, 2022-02-05)"
   xmlns:inkscape="http://www.inkscape.org/namespaces/inkscape"
   xmlns:sodipodi="http://sodipodi.sourceforge.net/DTD/sodipodi-0.dtd"
   xmlns="http://www.w3.org/2000/svg"
   xmlns:svg="http://www.w3.org/2000/svg"
   xmlns:rdf="http://www.w3.org/1999/02/22-rdf-syntax-ns#"
   xmlns:cc="http://creativecommons.org/ns#"
   xmlns:dc="http://purl.org/dc/elements/1.1/"><defs
   id="defs35" /><sodipodi:namedview
   id="namedview33"
   pagecolor="#ffffff"
   bordercolor="#666666"
   borderopacity="1.0"
   inkscape:pageshadow="2"
   inkscape:pageopacity="0.0"
   inkscape:pagecheckerboard="0"
   showgrid="false"
   width="477px"
   inkscape:zoom="1.8747967"
   inkscape:cx="217.3569"
   inkscape:cy="58.673027"
   inkscape:window-width="1366"
   inkscape:window-height="697"
   inkscape:window-x="-8"
   inkscape:window-y="-8"
   inkscape:window-maximized="1"
   inkscape:current-layer="cr_close" />
<path
   class="st0"
   d="M 463.3,88.5 V 19.7 h 12.1 v 68.9 h -12.1 z"
   id="path6" />
<path
   class="st0"
   d="M 437.2,88.5 V 19.7 h 12.1 v 68.9 h -12.1 z"
   id="path8" />
<path
   class="st0"
   d="m 427,63.7 c 0,16.6 -8.3,25.5 -23.6,25.5 -15.3,0 -23.6,-8.9 -23.6,-25.5 0,-16.6 8.3,-25.5 23.6,-25.5 15.3,0 23.6,8.9 23.6,25.5 z m -11.5,0 c 0,-13.4 -4.5,-15.9 -11.5,-15.9 -7,0 -11.5,2.5 -11.5,15.9 0,13.4 4.5,15.9 11.5,15.9 6.4,0 11.5,-2.5 11.5,-15.9 z"
   id="path10" />
<path
   class="st0"
   d="m 374.7,38.2 v 10.2 c -6.4,0 -14,0 -14,3.2 v 37 h -12.1 v -44 c 0.6,-7.7 26.1,-6.4 26.1,-6.4 z"
   id="path12" />
<path
   class="st0"
   d="M 302,108.3 C 311,86 310.3,87.9 311,86 L 293.1,38.8 h 12.8 l 11.5,34.4 10.8,-34.4 H 341 l -19.1,51 -7,18.5 H 302 Z"
   id="path14" />
<path
   class="st0"
   d="m 286.1,58.6 v 30 H 274 V 57.9 c 0,-4.5 -1.3,-8.9 -12.1,-8.9 -2.8,0.1 -5.6,0.5 -8.3,1.3 V 88.6 H 241.5 V 19.7 h 12.1 v 19.8 c 3.2,-1.4 6.7,-2 10.2,-1.9 14.6,0.6 22.3,8.2 22.3,21 z"
   id="path16" />
<path
   class="st0"
   d="m 219.2,79 c 4.4,-0.2 8.7,-1 12.8,-2.6 v 10.2 c -4.7,1.9 -9.6,2.7 -14.7,2.5 -15.3,0 -23.6,-8.9 -23.6,-25.5 0,-16.6 8.3,-26.1 23.6,-26.1 5,0.2 9.9,1 14.7,2.6 v 10.2 c -4.1,-1.6 -8.4,-2.4 -12.8,-2.5 -8.3,0 -13.4,2.5 -13.4,15.3 0,13.3 5.1,15.9 13.4,15.9 z"
   id="path18" />
<path
   class="st0"
   d="M 186,57.3 V 88.5 H 174.5 V 57.3 c 0,-4.5 0,-8.9 -10.2,-8.9 -3.2,0 -9.6,0.6 -9.6,2.5 V 88.5 H 143.2 V 47.1 c 0,-8.3 10.2,-9.6 22.9,-9.6 12.9,0.7 19.9,5.8 19.9,19.8 z"
   id="path20" />
<path
   class="st0"
   d="m 131.8,38.8 v 27.4 c 0,14.7 -5.1,23.6 -22.3,23.6 -17.2,0 -21.7,-8.9 -21.7,-23.6 V 38.8 h 11.5 v 28.7 c 0,8.3 3.2,10.8 10.2,10.8 7,0 10.2,-2.5 10.2,-10.8 V 38.8 Z"
   id="path22" />
<path
   class="st0"
   d="m 78.3,38.2 v 10.2 c -6.4,0 -14,0 -14,3.2 v 37 H 52.2 v -44 c 0.6,-7.7 26.1,-6.4 26.1,-6.4 z"
   id="path24" />
<path
   class="st0"
   d="m 28.5,79 c 4.2,-0.1 8.3,-1 12.1,-2.6 V 86.6 C 35.9,88.5 31,89.3 25.9,89.1 10.6,89.1 2.3,80.2 2.3,63.6 2.3,47 10.6,37.5 25.9,37.5 c 5,0.2 9.9,1 14.7,2.6 v 10.2 c -3.9,-1.5 -8,-2.4 -12.1,-2.5 -8.3,0 -13.4,2.5 -13.4,15.3 C 14.5,76.4 20.3,79 28.5,79 Z"
   id="path26" />


<metadata
   id="metadata197"><rdf:RDF><cc:Work
       rdf:about=""><dc:title>cr_logo_noTagline</dc:title></cc:Work></rdf:RDF></metadata></svg>
