<?xml version="1.0" encoding="UTF-8" standalone="no"?>
<!-- Generator: Adobe Illustrator 24.0.2, SVG Export Plug-In . SVG Version: 6.00 Build 0)  -->

<svg
   version="1.1"
   id="cr_close"
   x="0px"
   y="0px"
   viewBox="0 0 116.9 116.9"
   xml:space="preserve"
   sodipodi:docname="cr_logo.svg"
   width="116.9"
   height="116.9"
   inkscape:version="1.1.2 (b8e25be833, 2022-02-05)"
   xmlns:inkscape="http://www.inkscape.org/namespaces/inkscape"
   xmlns:sodipodi="http://sodipodi.sourceforge.net/DTD/sodipodi-0.dtd"
   xmlns="http://www.w3.org/2000/svg"
   xmlns:svg="http://www.w3.org/2000/svg"
   xmlns:rdf="http://www.w3.org/1999/02/22-rdf-syntax-ns#"
   xmlns:cc="http://creativecommons.org/ns#"
   xmlns:dc="http://purl.org/dc/elements/1.1/"><defs
   id="defs35" /><sodipodi:namedview
   id="namedview33"
   pagecolor="#ffffff"
   bordercolor="#666666"
   borderopacity="1.0"
   inkscape:pageshadow="2"
   inkscape:pageopacity="0.0"
   inkscape:pagecheckerboard="0"
   showgrid="false"
   height="116.9px"
   inkscape:zoom="1.8747967"
   inkscape:cx="305.36644"
   inkscape:cy="58.673027"
   inkscape:window-width="1366"
   inkscape:window-height="697"
   inkscape:window-x="-8"
   inkscape:window-y="-8"
   inkscape:window-maximized="1"
   inkscape:current-layer="cr_close" />











<path
   class="st0"
   d="m 15.5,65.7 c 0,-27.9 22.6,-50.4 50.5,-50.4 26.3,0.1 48.1,20.3 50.2,46.5 V 58.6 C 116.2,26.9 90.5,1.2 58.8,1.2 27.1,1.2 1.4,27 1.4,58.7 1.4,90.4 27.1,116 58.8,116 h 3.8 C 36.2,114.2 15.6,92.2 15.5,65.7 Z"
   id="path28" />
<path
   class="st0"
   d="M 93.2,68.2 C 83,68.2 74.8,60 74.7,49.9 c 0,-7.8 4.8,-14.7 12.1,-17.4 -5.7,-3 -12,-4.6 -18.5,-4.5 -22.2,0 -40.2,18 -40.2,40.2 0,22.2 18,40.2 40.2,40.2 22.2,0 40.2,-18 40.2,-40.2 0,0 0,0 0,0 0.1,-2.6 -0.1,-5.1 -0.6,-7.7 -3.1,5.1 -8.8,8 -14.7,7.7 z"
   id="path30" />
<metadata
   id="metadata277"><rdf:RDF><cc:Work
       rdf:about=""><dc:title>cr_logo_noTagline</dc:title></cc:Work></rdf:RDF></metadata></svg>
