<?xml version="1.0" encoding="UTF-8" standalone="no"?>
<!-- Created with Inkscape (http://www.inkscape.org/) -->

<svg
   width="50"
   height="50"
   viewBox="0 0 13.229166 13.229167"
   version="1.1"
   id="svg1936"
   sodipodi:docname="fun_logo.svg"
   inkscape:version="1.1.2 (b8e25be833, 2022-02-05)"
   xmlns:inkscape="http://www.inkscape.org/namespaces/inkscape"
   xmlns:sodipodi="http://sodipodi.sourceforge.net/DTD/sodipodi-0.dtd"
   xmlns="http://www.w3.org/2000/svg"
   xmlns:svg="http://www.w3.org/2000/svg">
  <sodipodi:namedview
     id="namedview6"
     pagecolor="#ffffff"
     bordercolor="#666666"
     borderopacity="1.0"
     inkscape:pageshadow="2"
     inkscape:pageopacity="0.0"
     inkscape:pagecheckerboard="0"
     showgrid="false"
     inkscape:zoom="10.22"
     inkscape:cx="25"
     inkscape:cy="25.048924"
     inkscape:window-width="1366"
     inkscape:window-height="697"
     inkscape:window-x="-8"
     inkscape:window-y="-8"
     inkscape:window-maximized="1"
     inkscape:current-layer="svg1936" />
  <defs
     id="defs1933" />
  <g
     id="layer1">
    <path
       d="m 7.3612049,10.611605 c 0.3918054,-0.07907 0.9192867,-0.339637 1.1698757,-0.580851 0.247821,-0.2370577 0.473489,-0.5850037 0.574556,-0.8858307 0.04292,-0.127538 0.07892,-0.246755 0.07892,-0.263385 0,-0.0166 -1.1435726,-0.03048 -2.5405036,-0.03048 H 4.1049329 l 0.022143,0.1414 c 0.037384,0.228729 0.2768945,0.670956 0.4901021,0.905237 0.3281215,0.3604307 0.755921,0.5960907 1.2944803,0.7153187 0.317044,0.07072 1.0923482,0.06931 1.4495417,-0.003 z M 5.741374,13.190071 C 4.9868353,13.081939 4.3250586,12.878158 3.6798971,12.556538 0.44162066,10.942923 -0.90547002,7.0516595 0.63959956,3.7745035 1.9534629,0.98948064 5.0588298,-0.51739006 8.0866658,0.16187474 10.618862,0.72886264 12.562657,2.7181689 13.119217,5.3118854 c 0.105219,0.4851919 0.143985,1.5872782 0.07615,2.1251531 -0.09276,0.737501 -0.311503,1.4639058 -0.649316,2.1417918 -0.362731,0.7277927 -0.728231,1.2185277 -1.370623,1.8368107 -0.970516,0.932962 -2.0600924,1.483311 -3.4473349,1.739774 -0.4305696,0.08038 -1.5409144,0.09979 -1.9867126,0.03461 z"
       style="fill:#59549e;fill-opacity:1;fill-rule:nonzero;stroke:none;stroke-width:0.265991"
       id="path1927" />
  </g>
</svg>
