<?xml version="1.0" encoding="UTF-8" standalone="no"?>
<svg
   width="288.23px"
   height="38.26px"
   viewBox="0 0 288.23 38.26"
   version="1.1"
   id="svg5"
   sodipodi:docname="fun_letras.svg"
   inkscape:version="1.1.2 (b8e25be833, 2022-02-05)"
   xmlns:inkscape="http://www.inkscape.org/namespaces/inkscape"
   xmlns:sodipodi="http://sodipodi.sourceforge.net/DTD/sodipodi-0.dtd"
   xmlns="http://www.w3.org/2000/svg"
   xmlns:svg="http://www.w3.org/2000/svg">
  <sodipodi:namedview
     id="namedview6"
     pagecolor="#ffffff"
     bordercolor="#666666"
     borderopacity="1.0"
     inkscape:pageshadow="2"
     inkscape:pageopacity="0.0"
     inkscape:pagecheckerboard="0"
     showgrid="false"
     inkscape:zoom="4.0002774"
     inkscape:cx="144.11501"
     inkscape:cy="19.248665"
     inkscape:window-width="1366"
     inkscape:window-height="697"
     inkscape:window-x="-8"
     inkscape:window-y="-8"
     inkscape:window-maximized="1"
     inkscape:current-layer="svg5" />
  <defs
     id="defs9" />
  <g
     id="surface1">
    <path
       style="fill:#59549e;fill-opacity:1;fill-rule:nonzero;stroke:none"
       d="M 258.64844,19.222656 V 1.132813 h 5.12109 l 0.0312,2.363281 0.0273,2.363281 0.55079,-0.738281 c 1.8164,-2.441406 4.64062,-4.160156 7.91796,-4.808594 1.34375,-0.265625 4.44141,-0.2382812 6.10547,0.054688 5.0586,0.898437 8.11328,3.574218 9.17578,8.042968 0.58204,2.457032 0.57032,2.132813 0.61329,16.019532 l 0.0391,12.890625 h -5.24219 V 25.316406 c 0,-12.835937 -0.0195,-13.339843 -0.53906,-15.214843 C 281.65234,7.230469 279.75,5.4375 276.83984,4.808594 c -1.01562,-0.21875 -3.39453,-0.25 -4.41797,-0.058594 -4.12109,0.769531 -7.03125,3.675781 -8.16015,8.152344 -0.45703,1.808594 -0.48828,2.628906 -0.48828,13.800781 v 10.617188 h -5.1211 z m -20.72657,10.675782 c 1.10547,-0.222657 2.59375,-0.957032 3.30079,-1.636719 0.69921,-0.667969 1.33593,-1.648438 1.62109,-2.496094 0.12109,-0.359375 0.22266,-0.695312 0.22266,-0.742187 0,-0.04687 -3.22657,-0.08594 -7.16797,-0.08594 h -7.16407 l 0.0625,0.398438 c 0.10547,0.644531 0.78125,1.890625 1.38282,2.550781 0.92578,1.015625 2.13281,1.679687 3.65234,2.015625 0.89453,0.199219 3.08203,0.195312 4.08984,-0.0078 z m -4.57031,7.265625 c -2.1289,-0.304688 -3.99609,-0.878907 -5.8164,-1.785157 -9.13672,-4.546875 -12.9375,-15.511718 -8.57813,-24.746093 3.70703,-7.847657 12.46875,-12.093751 21.01172,-10.179688 7.14453,1.597656 12.62891,7.203125 14.19922,14.511719 0.29687,1.367187 0.40625,4.472656 0.21484,5.988281 -0.26172,2.078125 -0.8789,4.125 -1.83203,6.035156 -1.02344,2.050782 -2.05469,3.433594 -3.86719,5.175782 -2.73828,2.628906 -5.8125,4.179687 -9.72656,4.902343 -1.21484,0.226563 -4.34766,0.28125 -5.60547,0.09766 z M 207.94531,19.222656 V 1.132813 h 5.125 v 36.1875 h -5.125 z m -107.80859,0 V 1.132813 h 4.79687 l 0.0312,2.472656 0.0273,2.472656 0.59765,-0.792969 c 1.9336,-2.558593 4.14454,-4.09375 6.82032,-4.738281 3.39453,-0.8125 6.82421,-0.5078125 9.5664,0.851563 1.91016,0.949218 3.19922,2.175781 4.10156,3.914062 0.23829,0.460938 0.44922,0.835938 0.46875,0.835938 0.0156,0 0.25391,-0.335938 0.52344,-0.742188 1.75391,-2.636719 4.53906,-4.378906 8.13672,-5.085937 1.14844,-0.226563 3.82031,-0.2539067 5.11719,-0.050782 2.92187,0.453125 4.95703,1.441407 6.55469,3.175782 1.73828,1.886718 2.66015,4.441406 2.89453,8.019531 0.0547,0.863281 0.10156,7.035156 0.10156,13.710937 l 0.004,12.144532 h -5.23047 v -12.625 c 0,-8.058594 -0.0391,-12.953125 -0.11328,-13.53125 -0.35157,-2.886719 -1.48829,-4.84375 -3.31641,-5.707032 -1,-0.46875 -1.75391,-0.660156 -3.17578,-0.808593 -4.39453,-0.453125 -7.69922,1.335937 -9.24219,5.003906 -0.44531,1.054687 -0.64453,1.746094 -0.93359,3.238281 -0.22266,1.1875 -0.23047,1.433594 -0.26953,12.820313 l -0.0391,11.609375 h -5.21484 l -0.0625,-26.742188 -0.24219,-0.90625 c -0.5,-1.894531 -1.49219,-3.386719 -2.72656,-4.109375 -1.35938,-0.792969 -3.09375,-1.113281 -4.98828,-0.921875 -2.51563,0.257813 -4.12891,0.972656 -5.70703,2.523438 -1.59766,1.570312 -2.5625,3.683593 -3.10547,6.785156 -0.15235,0.878906 -0.17969,2.425781 -0.21875,12.1875 l -0.043,11.183594 h -5.11328 z m -9.609376,0 V 1.132813 h 5.230469 v 36.1875 h -5.230469 z m -33.410156,0 V 1.132813 h 5.226562 l 0.02734,2.359375 0.03125,2.363281 0.371094,-0.574219 c 0.519531,-0.8125 1.9375,-2.195312 2.929687,-2.863281 1.570313,-1.058594 3.535156,-1.839844 5.445313,-2.164063 0.96875,-0.1679685 3.878906,-0.1562497 5.183593,0.019532 5.136719,0.683593 8.496094,3.398437 9.660157,7.800781 0.644531,2.441406 0.617187,1.863281 0.664062,16.140625 l 0.03906,13.101562 H 81.574219 L 81.535156,25.015625 C 81.488281,11.757813 81.492188,11.859375 80.917969,9.9375 80.164063,7.429688 78.503906,5.722656 76.089844,4.984375 74.410156,4.472656 71.78125,4.46875 69.953125,4.972656 66.5625,5.914063 64.019531,8.566406 62.941406,12.292969 62.351563,14.328125 62.351563,14.253906 62.351563,26.242188 V 37.316406 H 57.121094 V 19.222656 Z M 0.0390625,24.269531 C 0.0820313,9.996094 0.0507813,10.699219 0.71875,8.496094 2.25,3.410156 6.5,0.535156 13.179688,0.0664063 c 2.023437,-0.1406251 4.84375,0.0234375 6.441406,0.3749997 l 0.242187,0.054688 V 5.363281 L 18.875,5.214844 C 18.296875,5.125 16.964844,5.058594 15.648438,5.050781 13.695313,5.039063 13.261719,5.070313 12.292969,5.28125 8.957031,6 6.859375,7.59375 5.863281,10.164063 c -0.5,1.289062 -0.632812,2.375 -0.597656,5.011718 l 0.027344,2.34375 12.117187,0.05469 v 4.804687 H 5.347656 V 37.324219 H 0 L 0.0390625,24.273438 Z M 197.37891,37.527344 c -3.19532,-0.378906 -4.96485,-1.71875 -5.60547,-4.234375 -0.34766,-1.378906 -0.36719,-2.199219 -0.3711,-14.894531 V 5.613281 h -6.1914 V 1.128906 h 18.57422 v 4.484375 h -7.26172 l 0.004,11.929688 c 0.004,11.332031 0.0391,12.867187 0.31641,13.898437 0.26172,0.980469 0.99219,1.535157 2.25781,1.71875 0.64453,0.08984 3.69922,-0.03125 4.38672,-0.171875 l 0.29297,-0.0625 v 4.570313 l -1.9375,0.07422 c -2.29688,0.08203 -3.51953,0.07031 -4.46484,-0.04297 z M 168.14062,33.625 c 4.03125,-0.6875 7.00782,-2.800781 8.53125,-6.046875 0.78125,-1.671875 0.87891,-2.277344 0.9336,-5.816406 0.0273,-1.71875 0.0195,-3.125 -0.004,-3.125 -0.0312,0 -0.25781,0.09375 -0.51562,0.207031 -0.9961,0.4375 -3.60938,0.941406 -7.78125,1.5 -6.83985,0.917969 -10.08594,2.523438 -10.84375,5.375 -0.19532,0.734375 -0.19141,2.332031 0.0156,3.105469 0.62891,2.414062 2.81641,4.304687 5.60938,4.855469 0.80468,0.15625 2.98047,0.125 4.05468,-0.05469 z m -4.70312,4.539063 c -2.08594,-0.203125 -4.16016,-0.816407 -5.59766,-1.660157 -0.97265,-0.566406 -2.36718,-1.855468 -2.97265,-2.75 -0.55469,-0.816406 -1.1836,-2.179687 -1.40625,-3.054687 -0.31641,-1.242188 -0.4375,-3.070313 -0.29688,-4.464844 0.23438,-2.3125 0.875,-3.898437 2.13281,-5.253906 1.57422,-1.703125 3.3125,-2.691406 6.16797,-3.507813 1.71094,-0.492187 3.05469,-0.722656 7.25391,-1.242187 5.57812,-0.6875 6.1875,-0.777344 6.85156,-1.027344 0.78125,-0.292969 1.42578,-0.9375 1.75,-1.753906 0.21875,-0.554688 0.2461,-0.8125 0.25,-2.125 0,-1.261719 -0.0352,-1.617188 -0.24609,-2.292969 -0.74219,-2.402344 -2.48438,-3.742187 -5.46485,-4.207031 -4.3125,-0.671875 -7.99609,0.109375 -10.07031,2.132812 -1.16797,1.140625 -1.98047,3.289063 -1.98437,5.25 v 0.558594 h -5.23047 v -0.242187 c 0.0117,-1.015625 0.4414,-3.226563 0.8789,-4.507813 1.00782,-2.957031 3.50782,-5.515625 6.51563,-6.675781 2.57422,-0.992188 5.96875,-1.4296878 9.14453,-1.171875 4.28125,0.34375 6.53906,1.199219 8.59766,3.257812 1.53125,1.53125 2.2539,2.835938 2.79687,5.050782 0.15625,0.628906 0.1836,2.023437 0.23828,11.816406 0.0625,10.988281 0.0664,11.105469 0.28516,11.527344 0.53125,1.015625 1.82812,1.273437 3.27344,0.652343 l 0.39843,-0.175781 v 4.675781 l -0.8789,0.144532 c -1.08203,0.179687 -3.45703,0.183593 -4.22656,0.0078 -1.3086,-0.296875 -2.39844,-1.125 -2.95313,-2.234375 -0.3125,-0.628906 -0.58203,-1.765625 -0.58594,-2.464844 0,-0.253906 -0.043,-0.449218 -0.0937,-0.425781 -0.0508,0.01953 -0.3789,0.394531 -0.73047,0.835938 -1.94531,2.457031 -3.80078,3.832031 -6.2539,4.632812 -2.13281,0.695313 -4.88672,0.949219 -7.54297,0.695313 z m -127.027344,0.0078 C 35.15625,38.050781 33.960938,37.820313 32.800781,37.472656 28.414063,36.152344 25.230469,32.714844 24.011719,27.988281 23.4375,25.757813 23.460938,26.316406 23.417969,13.222656 L 23.378906,1.027344 h 5.023438 v 11.640625 c 0,7.636719 0.04297,11.996094 0.117187,12.675781 0.433594,3.902344 2.773438,6.558594 6.929688,7.863281 2.03125,0.636719 3.664062,0.667969 5.640625,0.101563 3.574219,-1.023438 5.707031,-3.261719 6.414062,-6.734375 0.214844,-1.054688 0.21875,-1.375 0.21875,-13.3125 V 1.027344 H 53.0625 v 11.96875 c 0,12.960937 -0.0039,13.019531 -0.589844,15.199219 -1.289062,4.796875 -4.601562,8.1875 -9.171875,9.398437 -2.070312,0.546875 -4.800781,0.777344 -6.890625,0.578125"
       id="path2" />
  </g>
</svg>
